<svg xmlns="http://www.w3.org/2000/svg" xmlns:xlink="http://www.w3.org/1999/xlink" width="500" zoomAndPan="magnify" viewBox="0 0 375 374.999991" height="500" preserveAspectRatio="xMidYMid meet" version="1.0"><defs><g/><clipPath id="362d37d5da"><path d="M 29.195312 1.5 L 344.945312 1.5 L 344.945312 342.75 L 29.195312 342.75 Z M 29.195312 1.5 " clip-rule="nonzero"/></clipPath><clipPath id="a8a19571f4"><path d="M 0.28125 8 L 38 8 L 38 36 L 0.28125 36 Z M 0.28125 8 " clip-rule="nonzero"/></clipPath><clipPath id="05abaf6eab"><rect x="0" width="326" y="0" height="39"/></clipPath></defs><g clip-path="url(#362d37d5da)"><path fill="#7a1f2b" d="M 138.527344 257.429688 L 138.527344 310.59375 L 116.414062 310.59375 L 116.414062 104.011719 L 104.402344 111.039062 L 84.40625 123.050781 L 84.40625 310.59375 L 61.339844 310.59375 L 61.339844 136.15625 L 29.195312 154.171875 L 29.195312 342.808594 L 171.761719 342.808594 L 171.761719 72.820312 L 138.664062 90.839844 L 138.664062 257.363281 L 138.527344 257.363281 Z M 203.769531 72.820312 L 345.25 154.105469 L 345.25 253.402344 L 235.914062 253.402344 L 235.914062 342.738281 L 203.769531 342.738281 Z M 313.101562 221.394531 L 313.101562 173.214844 L 249.839844 136.15625 L 235.777344 128.101562 L 235.777344 221.394531 Z M 29.195312 130.082031 L 29.195312 92.886719 L 187.734375 1.570312 L 313.101562 73.84375 L 345.25 92.886719 L 345.25 129.945312 L 313.101562 110.902344 L 235.914062 66.816406 L 187.734375 38.628906 L 138.527344 66.679688 L 61.339844 110.835938 Z M 29.195312 130.082031 " fill-opacity="1" fill-rule="nonzero"/></g><g transform="matrix(1, 0, 0, 1, 29, 336)"><g clip-path="url(#05abaf6eab)"><g clip-path="url(#a8a19571f4)"><g fill="#7a1f2b" fill-opacity="1"><g transform="translate(0.527147, 34.59372)"><g><path d="M 18.46875 -13.40625 C 17.644531 -11.34375 16.664062 -8.753906 15.53125 -5.640625 C 13.988281 -1.429688 12.953125 0.671875 12.421875 0.671875 C 12.140625 0.671875 11.890625 0.53125 11.671875 0.25 C 11.460938 -0.03125 11.140625 -0.726562 10.703125 -1.84375 C 9.398438 -5.132812 7.960938 -8.976562 6.390625 -13.375 C 4.828125 -17.78125 3.875 -20.429688 3.53125 -21.328125 L 3.453125 -21.5 C 2.984375 -22.769531 2.5 -23.535156 2 -23.796875 C 1.863281 -23.867188 1.632812 -23.957031 1.3125 -24.0625 C 0.625 -24.28125 0.28125 -24.5625 0.28125 -24.90625 C 0.28125 -25.3125 0.632812 -25.609375 1.34375 -25.796875 C 2.0625 -25.984375 3.203125 -26.078125 4.765625 -26.078125 C 6.367188 -26.078125 7.515625 -25.984375 8.203125 -25.796875 C 8.890625 -25.609375 9.234375 -25.3125 9.234375 -24.90625 C 9.234375 -24.539062 8.691406 -24.191406 7.609375 -23.859375 L 7.546875 -23.828125 C 7.210938 -23.742188 6.972656 -23.601562 6.828125 -23.40625 C 6.691406 -23.207031 6.625 -22.929688 6.625 -22.578125 C 6.625 -21.679688 7.335938 -19.25 8.765625 -15.28125 C 9.117188 -14.320312 9.390625 -13.582031 9.578125 -13.0625 C 10.472656 -10.539062 11.210938 -8.566406 11.796875 -7.140625 C 12.390625 -5.722656 12.75 -5.015625 12.875 -5.015625 C 13.0625 -5.015625 13.503906 -5.863281 14.203125 -7.5625 C 14.898438 -9.269531 15.988281 -12.144531 17.46875 -16.1875 C 16.488281 -19.132812 15.800781 -21.054688 15.40625 -21.953125 C 15.019531 -22.847656 14.6875 -23.40625 14.40625 -23.625 C 14.238281 -23.75 13.863281 -23.910156 13.28125 -24.109375 C 12.707031 -24.316406 12.421875 -24.582031 12.421875 -24.90625 C 12.421875 -25.3125 12.773438 -25.609375 13.484375 -25.796875 C 14.191406 -25.984375 15.332031 -26.078125 16.90625 -26.078125 C 18.5 -26.078125 19.632812 -25.984375 20.3125 -25.796875 C 21 -25.617188 21.34375 -25.320312 21.34375 -24.90625 C 21.34375 -24.539062 20.796875 -24.191406 19.703125 -23.859375 L 19.625 -23.828125 C 19.289062 -23.722656 19.035156 -23.535156 18.859375 -23.265625 C 18.691406 -22.992188 18.609375 -22.648438 18.609375 -22.234375 C 18.609375 -21.847656 18.804688 -21.035156 19.203125 -19.796875 C 19.597656 -18.566406 20.394531 -16.320312 21.59375 -13.0625 C 22.675781 -10.09375 23.460938 -8.007812 23.953125 -6.8125 C 24.453125 -5.613281 24.769531 -5.015625 24.90625 -5.015625 C 25.007812 -5.015625 25.207031 -5.320312 25.5 -5.9375 C 25.800781 -6.5625 26.398438 -8 27.296875 -10.25 C 28.578125 -13.5 29.601562 -16.257812 30.375 -18.53125 C 31.144531 -20.800781 31.53125 -22.179688 31.53125 -22.671875 C 31.53125 -22.984375 31.453125 -23.238281 31.296875 -23.4375 C 31.140625 -23.632812 30.890625 -23.789062 30.546875 -23.90625 C 30.410156 -23.945312 30.226562 -24.003906 30 -24.078125 C 29.238281 -24.304688 28.859375 -24.597656 28.859375 -24.953125 C 28.859375 -25.335938 29.175781 -25.617188 29.8125 -25.796875 C 30.445312 -25.984375 31.5 -26.078125 32.96875 -26.078125 C 34.457031 -26.078125 35.519531 -25.984375 36.15625 -25.796875 C 36.789062 -25.617188 37.109375 -25.335938 37.109375 -24.953125 C 37.109375 -24.742188 37.023438 -24.566406 36.859375 -24.421875 C 36.691406 -24.285156 36.410156 -24.160156 36.015625 -24.046875 C 35.378906 -23.847656 34.90625 -23.597656 34.59375 -23.296875 C 34.28125 -22.992188 33.941406 -22.472656 33.578125 -21.734375 C 33.378906 -21.335938 32.488281 -18.960938 30.90625 -14.609375 C 29.332031 -10.265625 27.757812 -6.113281 26.1875 -2.15625 C 26.101562 -1.957031 25.988281 -1.671875 25.84375 -1.296875 C 25.320312 0.015625 24.878906 0.671875 24.515625 0.671875 C 23.929688 0.671875 22.710938 -1.867188 20.859375 -6.953125 C 19.890625 -9.609375 19.09375 -11.757812 18.46875 -13.40625 Z M 18.46875 -13.40625 "/></g></g></g></g><g fill="#7a1f2b" fill-opacity="1"><g transform="translate(45.91705, 34.59372)"><g><path d="M 3.984375 0 C 2.910156 0 2.15625 -0.0820312 1.71875 -0.25 C 1.28125 -0.414062 1.0625 -0.695312 1.0625 -1.09375 C 1.0625 -1.425781 1.394531 -1.703125 2.0625 -1.921875 C 2.726562 -2.148438 3.109375 -2.328125 3.203125 -2.453125 C 3.378906 -2.679688 3.503906 -3.523438 3.578125 -4.984375 C 3.660156 -6.441406 3.703125 -9.113281 3.703125 -13 C 3.703125 -16.84375 3.660156 -19.488281 3.578125 -20.9375 C 3.503906 -22.382812 3.378906 -23.222656 3.203125 -23.453125 C 3.109375 -23.578125 2.726562 -23.75 2.0625 -23.96875 C 1.394531 -24.1875 1.0625 -24.460938 1.0625 -24.796875 C 1.0625 -25.191406 1.285156 -25.476562 1.734375 -25.65625 C 2.191406 -25.84375 2.941406 -25.9375 3.984375 -25.9375 L 16.046875 -25.9375 C 16.628906 -25.9375 17.21875 -25.992188 17.8125 -26.109375 C 18.40625 -26.222656 18.71875 -26.28125 18.75 -26.28125 C 19.21875 -26.28125 19.585938 -25.929688 19.859375 -25.234375 C 20.128906 -24.535156 20.265625 -23.570312 20.265625 -22.34375 C 20.265625 -21.875 20.1875 -21.507812 20.03125 -21.25 C 19.875 -21 19.648438 -20.875 19.359375 -20.875 C 19.054688 -20.875 18.71875 -21.207031 18.34375 -21.875 C 18.226562 -22.082031 18.132812 -22.238281 18.0625 -22.34375 C 17.71875 -22.914062 17.316406 -23.304688 16.859375 -23.515625 C 16.398438 -23.722656 15.703125 -23.828125 14.765625 -23.828125 L 10.1875 -23.828125 C 9.082031 -23.828125 8.3125 -23.78125 7.875 -23.6875 C 7.445312 -23.59375 7.1875 -23.414062 7.09375 -23.15625 C 6.9375 -22.800781 6.828125 -22.101562 6.765625 -21.0625 C 6.710938 -20.03125 6.6875 -18.375 6.6875 -16.09375 L 6.6875 -15.796875 C 6.6875 -15.234375 6.734375 -14.894531 6.828125 -14.78125 C 6.921875 -14.675781 7.144531 -14.625 7.5 -14.625 L 12.1875 -14.625 C 12.988281 -14.625 13.554688 -14.75 13.890625 -15 C 14.222656 -15.257812 14.429688 -15.742188 14.515625 -16.453125 C 14.535156 -16.535156 14.554688 -16.65625 14.578125 -16.8125 C 14.710938 -17.894531 15.035156 -18.4375 15.546875 -18.4375 C 15.992188 -18.4375 16.300781 -18.132812 16.46875 -17.53125 C 16.644531 -16.9375 16.734375 -15.617188 16.734375 -13.578125 C 16.734375 -11.554688 16.644531 -10.253906 16.46875 -9.671875 C 16.300781 -9.085938 15.992188 -8.796875 15.546875 -8.796875 C 15.035156 -8.796875 14.710938 -9.328125 14.578125 -10.390625 C 14.554688 -10.566406 14.535156 -10.691406 14.515625 -10.765625 C 14.429688 -11.472656 14.222656 -11.953125 13.890625 -12.203125 C 13.554688 -12.460938 12.988281 -12.59375 12.1875 -12.59375 L 7.5 -12.59375 C 7.164062 -12.59375 6.941406 -12.503906 6.828125 -12.328125 C 6.710938 -12.148438 6.65625 -11.773438 6.65625 -11.203125 C 6.65625 -11.066406 6.660156 -10.742188 6.671875 -10.234375 C 6.679688 -9.734375 6.6875 -9.296875 6.6875 -8.921875 C 6.6875 -7.234375 6.71875 -5.929688 6.78125 -5.015625 C 6.851562 -4.097656 6.96875 -3.46875 7.125 -3.125 C 7.269531 -2.738281 7.640625 -2.460938 8.234375 -2.296875 C 8.835938 -2.140625 9.804688 -2.0625 11.140625 -2.0625 L 14.328125 -2.0625 C 15.609375 -2.0625 16.570312 -2.222656 17.21875 -2.546875 C 17.863281 -2.878906 18.421875 -3.460938 18.890625 -4.296875 C 19.066406 -4.628906 19.257812 -5.078125 19.46875 -5.640625 C 19.757812 -6.453125 20.09375 -6.859375 20.46875 -6.859375 C 20.738281 -6.859375 20.957031 -6.707031 21.125 -6.40625 C 21.300781 -6.101562 21.390625 -5.695312 21.390625 -5.1875 C 21.390625 -3.789062 21.148438 -2.503906 20.671875 -1.328125 C 20.191406 -0.148438 19.707031 0.4375 19.21875 0.4375 C 19.15625 0.4375 19.003906 0.398438 18.765625 0.328125 C 17.960938 0.109375 17.160156 0 16.359375 0 Z M 3.984375 0 "/></g></g></g><g fill="#7a1f2b" fill-opacity="1"><g transform="translate(76.298624, 34.59372)"><g><path d="M 11.953125 -1.890625 C 15.390625 -1.890625 17.957031 -2.78125 19.65625 -4.5625 C 21.351562 -6.351562 22.203125 -9.054688 22.203125 -12.671875 C 22.203125 -16.484375 21.320312 -19.335938 19.5625 -21.234375 C 17.8125 -23.128906 15.171875 -24.078125 11.640625 -24.078125 C 10.398438 -24.078125 9.410156 -24.03125 8.671875 -23.9375 C 7.941406 -23.84375 7.484375 -23.703125 7.296875 -23.515625 C 7.078125 -23.285156 6.921875 -22.367188 6.828125 -20.765625 C 6.734375 -19.171875 6.6875 -16.628906 6.6875 -13.140625 C 6.6875 -9.640625 6.71875 -7.164062 6.78125 -5.71875 C 6.851562 -4.269531 6.976562 -3.347656 7.15625 -2.953125 C 7.289062 -2.597656 7.757812 -2.332031 8.5625 -2.15625 C 9.363281 -1.976562 10.492188 -1.890625 11.953125 -1.890625 Z M 6.015625 -0.03125 C 5.867188 -0.03125 5.570312 -0.015625 5.125 0.015625 C 4.6875 0.046875 4.316406 0.0625 4.015625 0.0625 C 2.984375 0.0625 2.234375 -0.0234375 1.765625 -0.203125 C 1.296875 -0.390625 1.0625 -0.6875 1.0625 -1.09375 C 1.0625 -1.425781 1.394531 -1.703125 2.0625 -1.921875 C 2.726562 -2.148438 3.109375 -2.328125 3.203125 -2.453125 C 3.378906 -2.679688 3.503906 -3.523438 3.578125 -4.984375 C 3.660156 -6.441406 3.703125 -9.113281 3.703125 -13 C 3.703125 -16.84375 3.660156 -19.488281 3.578125 -20.9375 C 3.503906 -22.382812 3.378906 -23.222656 3.203125 -23.453125 C 3.109375 -23.578125 2.726562 -23.75 2.0625 -23.96875 C 1.394531 -24.1875 1.0625 -24.460938 1.0625 -24.796875 C 1.0625 -25.066406 1.171875 -25.289062 1.390625 -25.46875 C 1.617188 -25.65625 1.941406 -25.773438 2.359375 -25.828125 C 2.359375 -25.828125 2.429688 -25.832031 2.578125 -25.84375 C 5.191406 -26 8.222656 -26.078125 11.671875 -26.078125 C 16.191406 -26.078125 19.675781 -24.910156 22.125 -22.578125 C 24.570312 -20.253906 25.796875 -16.953125 25.796875 -12.671875 C 25.796875 -8.492188 24.5625 -5.328125 22.09375 -3.171875 C 19.625 -1.015625 16.003906 0.0625 11.234375 0.0625 C 10.785156 0.0625 9.976562 0.046875 8.8125 0.015625 C 7.65625 -0.015625 6.722656 -0.03125 6.015625 -0.03125 Z M 6.015625 -0.03125 "/></g></g></g><g fill="#7a1f2b" fill-opacity="1"><g transform="translate(112.151984, 34.59372)"><g><path d="M 6.6875 -13.5625 C 7.070312 -13.46875 7.441406 -13.398438 7.796875 -13.359375 C 8.160156 -13.328125 8.503906 -13.3125 8.828125 -13.3125 C 11.296875 -13.3125 13.140625 -13.773438 14.359375 -14.703125 C 15.578125 -15.628906 16.1875 -17.023438 16.1875 -18.890625 C 16.1875 -20.691406 15.679688 -22.03125 14.671875 -22.90625 C 13.660156 -23.789062 12.117188 -24.234375 10.046875 -24.234375 C 8.660156 -24.234375 7.8125 -24.1875 7.5 -24.09375 C 7.195312 -24 7.007812 -23.820312 6.9375 -23.5625 C 6.863281 -23.269531 6.800781 -22.238281 6.75 -20.46875 C 6.707031 -18.707031 6.6875 -16.40625 6.6875 -13.5625 Z M 19.75 -19.21875 C 19.75 -16.78125 18.828125 -14.90625 16.984375 -13.59375 C 15.148438 -12.289062 12.523438 -11.640625 9.109375 -11.640625 C 8.910156 -11.640625 8.671875 -11.648438 8.390625 -11.671875 C 8.109375 -11.691406 7.9375 -11.703125 7.875 -11.703125 C 7.320312 -11.703125 6.984375 -11.613281 6.859375 -11.4375 C 6.742188 -11.257812 6.6875 -10.707031 6.6875 -9.78125 L 6.6875 -9.46875 C 6.6875 -7.164062 6.722656 -5.472656 6.796875 -4.390625 C 6.878906 -3.316406 6.992188 -2.675781 7.140625 -2.46875 C 7.242188 -2.332031 7.628906 -2.148438 8.296875 -1.921875 C 8.960938 -1.703125 9.296875 -1.425781 9.296875 -1.09375 C 9.296875 -0.664062 8.972656 -0.351562 8.328125 -0.15625 C 7.679688 0.0390625 6.625 0.140625 5.15625 0.140625 C 3.695312 0.140625 2.648438 0.046875 2.015625 -0.140625 C 1.378906 -0.335938 1.0625 -0.65625 1.0625 -1.09375 C 1.0625 -1.425781 1.394531 -1.703125 2.0625 -1.921875 C 2.726562 -2.148438 3.109375 -2.328125 3.203125 -2.453125 C 3.378906 -2.679688 3.503906 -3.523438 3.578125 -4.984375 C 3.660156 -6.441406 3.703125 -9.113281 3.703125 -13 C 3.703125 -16.84375 3.660156 -19.488281 3.578125 -20.9375 C 3.503906 -22.382812 3.378906 -23.222656 3.203125 -23.453125 C 3.109375 -23.578125 2.726562 -23.75 2.0625 -23.96875 C 1.394531 -24.1875 1.0625 -24.460938 1.0625 -24.796875 C 1.0625 -25.066406 1.171875 -25.289062 1.390625 -25.46875 C 1.617188 -25.65625 1.941406 -25.773438 2.359375 -25.828125 C 2.359375 -25.828125 2.410156 -25.828125 2.515625 -25.828125 C 4.972656 -25.972656 7.894531 -26.046875 11.28125 -26.046875 C 13.96875 -26.046875 16.050781 -25.445312 17.53125 -24.25 C 19.007812 -23.0625 19.75 -21.382812 19.75 -19.21875 Z M 19.75 -19.21875 "/></g></g></g><g fill="#7a1f2b" fill-opacity="1"><g transform="translate(140.657517, 34.59372)"><g><path d="M 13 -2.0625 C 14.257812 -2.0625 15.210938 -2.222656 15.859375 -2.546875 C 16.503906 -2.878906 17.0625 -3.460938 17.53125 -4.296875 C 17.71875 -4.617188 17.914062 -5.066406 18.125 -5.640625 C 18.40625 -6.453125 18.734375 -6.859375 19.109375 -6.859375 C 19.378906 -6.859375 19.59375 -6.707031 19.75 -6.40625 C 19.914062 -6.113281 20 -5.707031 20 -5.1875 C 20 -3.789062 19.757812 -2.503906 19.28125 -1.328125 C 18.8125 -0.148438 18.328125 0.4375 17.828125 0.4375 C 17.765625 0.4375 17.617188 0.398438 17.390625 0.328125 C 16.597656 0.109375 15.804688 0 15.015625 0 L 4.484375 0 C 3.421875 0 2.664062 -0.0820312 2.21875 -0.25 C 1.78125 -0.414062 1.5625 -0.695312 1.5625 -1.09375 C 1.5625 -1.425781 1.898438 -1.703125 2.578125 -1.921875 C 3.253906 -2.148438 3.640625 -2.328125 3.734375 -2.453125 C 3.921875 -2.679688 4.050781 -3.523438 4.125 -4.984375 C 4.195312 -6.441406 4.234375 -9.113281 4.234375 -13 C 4.234375 -16.84375 4.195312 -19.488281 4.125 -20.9375 C 4.050781 -22.382812 3.921875 -23.222656 3.734375 -23.453125 C 3.640625 -23.578125 3.253906 -23.75 2.578125 -23.96875 C 1.898438 -24.1875 1.5625 -24.460938 1.5625 -24.796875 C 1.5625 -25.242188 1.890625 -25.566406 2.546875 -25.765625 C 3.203125 -25.972656 4.253906 -26.078125 5.703125 -26.078125 C 7.140625 -26.078125 8.179688 -25.972656 8.828125 -25.765625 C 9.484375 -25.566406 9.8125 -25.242188 9.8125 -24.796875 C 9.8125 -24.460938 9.472656 -24.1875 8.796875 -23.96875 C 8.128906 -23.75 7.742188 -23.570312 7.640625 -23.4375 C 7.453125 -23.1875 7.316406 -22.234375 7.234375 -20.578125 C 7.160156 -18.929688 7.125 -16.40625 7.125 -13 C 7.125 -9.625 7.15625 -7.234375 7.21875 -5.828125 C 7.289062 -4.421875 7.410156 -3.519531 7.578125 -3.125 C 7.734375 -2.738281 8.113281 -2.460938 8.71875 -2.296875 C 9.320312 -2.140625 10.296875 -2.0625 11.640625 -2.0625 Z M 13 -2.0625 "/></g></g></g><g fill="#7a1f2b" fill-opacity="1"><g transform="translate(169.684172, 34.59372)"><g><path d="M 7.90625 -10.71875 C 8.363281 -10.738281 8.878906 -10.753906 9.453125 -10.765625 C 10.023438 -10.773438 10.925781 -10.78125 12.15625 -10.78125 C 13.46875 -10.78125 14.472656 -10.773438 15.171875 -10.765625 C 15.867188 -10.753906 16.523438 -10.734375 17.140625 -10.703125 C 16.253906 -13.054688 15.410156 -15.164062 14.609375 -17.03125 C 13.804688 -18.894531 13.160156 -20.300781 12.671875 -21.25 L 12.421875 -21.25 C 11.984375 -20.425781 11.394531 -19.160156 10.65625 -17.453125 C 9.914062 -15.742188 9 -13.5 7.90625 -10.71875 Z M 12.421875 -8.75 L 10.5625 -8.75 C 9.226562 -8.75 8.34375 -8.710938 7.90625 -8.640625 C 7.476562 -8.578125 7.207031 -8.457031 7.09375 -8.28125 C 7.007812 -8.175781 6.910156 -8.007812 6.796875 -7.78125 C 6.691406 -7.550781 6.507812 -7.101562 6.25 -6.4375 C 6.207031 -6.3125 6.140625 -6.132812 6.046875 -5.90625 C 5.523438 -4.625 5.265625 -3.796875 5.265625 -3.421875 C 5.265625 -3.109375 5.34375 -2.851562 5.5 -2.65625 C 5.664062 -2.457031 5.925781 -2.296875 6.28125 -2.171875 C 6.414062 -2.128906 6.585938 -2.070312 6.796875 -2 C 7.554688 -1.726562 7.9375 -1.425781 7.9375 -1.09375 C 7.9375 -0.664062 7.613281 -0.351562 6.96875 -0.15625 C 6.332031 0.0390625 5.273438 0.140625 3.796875 0.140625 C 2.335938 0.140625 1.289062 0.046875 0.65625 -0.140625 C 0.03125 -0.335938 -0.28125 -0.65625 -0.28125 -1.09375 C -0.28125 -1.4375 0.101562 -1.726562 0.875 -1.96875 C 1.226562 -2.070312 1.492188 -2.160156 1.671875 -2.234375 C 2.234375 -2.597656 2.9375 -3.804688 3.78125 -5.859375 L 3.875 -6.078125 C 4.664062 -7.992188 5.722656 -10.539062 7.046875 -13.71875 C 9.898438 -20.5625 11.40625 -24.347656 11.5625 -25.078125 C 11.582031 -25.148438 11.609375 -25.265625 11.640625 -25.421875 C 11.753906 -25.972656 12.128906 -26.25 12.765625 -26.25 C 13.148438 -26.25 13.453125 -26.164062 13.671875 -26 C 13.890625 -25.832031 14.160156 -25.394531 14.484375 -24.6875 C 15.804688 -21.769531 17.671875 -17.234375 20.078125 -11.078125 C 21.210938 -8.179688 22.070312 -6.007812 22.65625 -4.5625 C 22.695312 -4.457031 22.75 -4.332031 22.8125 -4.1875 C 23.25 -3.09375 23.703125 -2.421875 24.171875 -2.171875 C 24.296875 -2.097656 24.519531 -2.007812 24.84375 -1.90625 C 25.519531 -1.6875 25.859375 -1.40625 25.859375 -1.0625 C 25.859375 -0.65625 25.492188 -0.351562 24.765625 -0.15625 C 24.035156 0.0390625 22.894531 0.140625 21.34375 0.140625 C 19.78125 0.140625 18.632812 0.0390625 17.90625 -0.15625 C 17.1875 -0.351562 16.828125 -0.65625 16.828125 -1.0625 C 16.828125 -1.40625 17.238281 -1.722656 18.0625 -2.015625 C 18.238281 -2.078125 18.382812 -2.128906 18.5 -2.171875 C 18.832031 -2.234375 19.078125 -2.359375 19.234375 -2.546875 C 19.398438 -2.742188 19.484375 -3.015625 19.484375 -3.359375 C 19.484375 -3.722656 19.335938 -4.363281 19.046875 -5.28125 C 18.765625 -6.207031 18.390625 -7.128906 17.921875 -8.046875 C 17.773438 -8.304688 17.472656 -8.488281 17.015625 -8.59375 C 16.566406 -8.695312 15.679688 -8.75 14.359375 -8.75 Z M 12.421875 -8.75 "/></g></g></g><g fill="#7a1f2b" fill-opacity="1"><g transform="translate(203.62675, 34.59372)"><g><path d="M 5.59375 -21.3125 L 5.59375 -13 C 5.59375 -9.539062 5.632812 -6.976562 5.71875 -5.3125 C 5.800781 -3.644531 5.929688 -2.695312 6.109375 -2.46875 C 6.210938 -2.332031 6.597656 -2.148438 7.265625 -1.921875 C 7.941406 -1.703125 8.28125 -1.425781 8.28125 -1.09375 C 8.28125 -0.675781 8 -0.367188 7.4375 -0.171875 C 6.875 0.015625 5.957031 0.109375 4.6875 0.109375 C 3.40625 0.109375 2.472656 0.015625 1.890625 -0.171875 C 1.316406 -0.367188 1.03125 -0.675781 1.03125 -1.09375 C 1.03125 -1.425781 1.367188 -1.703125 2.046875 -1.921875 C 2.722656 -2.148438 3.109375 -2.328125 3.203125 -2.453125 C 3.378906 -2.679688 3.503906 -3.523438 3.578125 -4.984375 C 3.660156 -6.441406 3.703125 -9.113281 3.703125 -13 C 3.703125 -16.84375 3.660156 -19.488281 3.578125 -20.9375 C 3.503906 -22.382812 3.378906 -23.222656 3.203125 -23.453125 C 3.109375 -23.578125 2.722656 -23.75 2.046875 -23.96875 C 1.367188 -24.1875 1.03125 -24.460938 1.03125 -24.796875 C 1.03125 -25.191406 1.273438 -25.488281 1.765625 -25.6875 C 2.265625 -25.894531 2.988281 -26 3.9375 -26 C 4.6875 -26 5.253906 -25.910156 5.640625 -25.734375 C 6.035156 -25.566406 6.421875 -25.226562 6.796875 -24.71875 C 7.003906 -24.457031 7.414062 -23.90625 8.03125 -23.0625 C 12.632812 -16.8125 17.378906 -10.722656 22.265625 -4.796875 L 22.265625 -12.9375 C 22.265625 -17.082031 22.226562 -19.8125 22.15625 -21.125 C 22.082031 -22.445312 21.953125 -23.222656 21.765625 -23.453125 C 21.671875 -23.578125 21.285156 -23.75 20.609375 -23.96875 C 19.929688 -24.1875 19.59375 -24.460938 19.59375 -24.796875 C 19.59375 -25.222656 19.878906 -25.53125 20.453125 -25.71875 C 21.023438 -25.90625 21.945312 -26 23.21875 -26 C 24.507812 -26 25.4375 -25.90625 26 -25.71875 C 26.570312 -25.53125 26.859375 -25.222656 26.859375 -24.796875 C 26.859375 -24.640625 26.785156 -24.5 26.640625 -24.375 C 26.492188 -24.25 26.269531 -24.128906 25.96875 -24.015625 C 25.882812 -23.984375 25.769531 -23.945312 25.625 -23.90625 C 24.988281 -23.707031 24.628906 -23.457031 24.546875 -23.15625 C 24.421875 -22.707031 24.328125 -21.039062 24.265625 -18.15625 C 24.203125 -15.269531 24.171875 -11.289062 24.171875 -6.21875 L 24.171875 -1.25 C 24.171875 -0.550781 24.109375 -0.128906 23.984375 0.015625 C 23.867188 0.171875 23.671875 0.25 23.390625 0.25 C 22.992188 0.25 22.648438 0.160156 22.359375 -0.015625 C 22.066406 -0.191406 21.644531 -0.613281 21.09375 -1.28125 C 19.914062 -2.707031 17.882812 -5.28125 15 -9 C 12.113281 -12.726562 8.976562 -16.832031 5.59375 -21.3125 Z M 5.59375 -21.3125 "/></g></g></g><g fill="#7a1f2b" fill-opacity="1"><g transform="translate(239.705919, 34.59372)"><g/></g></g><g fill="#7a1f2b" fill-opacity="1"><g transform="translate(258.101686, 34.59372)"><g><path d="M 8.1875 -12.390625 C 7.5 -12.390625 7.082031 -12.300781 6.9375 -12.125 C 6.789062 -11.945312 6.71875 -11.40625 6.71875 -10.5 L 6.71875 -10.21875 C 6.71875 -8.195312 6.742188 -6.5625 6.796875 -5.3125 C 6.847656 -4.0625 6.921875 -3.257812 7.015625 -2.90625 C 7.097656 -2.601562 7.550781 -2.328125 8.375 -2.078125 C 9.207031 -1.828125 10.1875 -1.703125 11.3125 -1.703125 C 13.238281 -1.703125 14.765625 -2.148438 15.890625 -3.046875 C 17.015625 -3.941406 17.578125 -5.15625 17.578125 -6.6875 C 17.578125 -8.675781 16.835938 -10.125 15.359375 -11.03125 C 13.878906 -11.9375 11.488281 -12.390625 8.1875 -12.390625 Z M 6.71875 -17.796875 L 6.71875 -15.75 C 6.71875 -15.082031 6.789062 -14.664062 6.9375 -14.5 C 7.09375 -14.34375 7.507812 -14.265625 8.1875 -14.265625 C 11 -14.265625 13.035156 -14.660156 14.296875 -15.453125 C 15.554688 -16.242188 16.1875 -17.507812 16.1875 -19.25 C 16.1875 -20.882812 15.664062 -22.125 14.625 -22.96875 C 13.59375 -23.8125 12.066406 -24.234375 10.046875 -24.234375 C 9.054688 -24.234375 8.328125 -24.195312 7.859375 -24.125 C 7.398438 -24.0625 7.128906 -23.957031 7.046875 -23.8125 C 6.929688 -23.582031 6.847656 -22.96875 6.796875 -21.96875 C 6.742188 -20.976562 6.71875 -19.585938 6.71875 -17.796875 Z M 19.78125 -19.78125 C 19.78125 -18.613281 19.484375 -17.570312 18.890625 -16.65625 C 18.304688 -15.738281 17.441406 -14.988281 16.296875 -14.40625 C 15.898438 -14.207031 15.460938 -14.035156 14.984375 -13.890625 C 14.503906 -13.742188 14.265625 -13.617188 14.265625 -13.515625 C 14.265625 -13.367188 14.582031 -13.234375 15.21875 -13.109375 C 15.5 -13.066406 15.722656 -13.03125 15.890625 -13 C 17.640625 -12.601562 18.96875 -11.882812 19.875 -10.84375 C 20.789062 -9.8125 21.25 -8.492188 21.25 -6.890625 C 21.25 -4.671875 20.425781 -2.957031 18.78125 -1.75 C 17.144531 -0.539062 14.820312 0.0625 11.8125 0.0625 C 11.0625 0.0625 10.085938 0.0351562 8.890625 -0.015625 C 7.691406 -0.078125 6.875 -0.109375 6.4375 -0.109375 C 5.863281 -0.109375 5.234375 -0.0859375 4.546875 -0.046875 C 3.867188 -0.015625 3.484375 0 3.390625 0 C 2.597656 0 2.007812 -0.0859375 1.625 -0.265625 C 1.25 -0.441406 1.0625 -0.71875 1.0625 -1.09375 C 1.0625 -1.425781 1.394531 -1.703125 2.0625 -1.921875 C 2.726562 -2.148438 3.109375 -2.328125 3.203125 -2.453125 C 3.378906 -2.679688 3.503906 -3.523438 3.578125 -4.984375 C 3.660156 -6.441406 3.703125 -9.113281 3.703125 -13 C 3.703125 -16.84375 3.660156 -19.488281 3.578125 -20.9375 C 3.503906 -22.382812 3.378906 -23.222656 3.203125 -23.453125 C 3.109375 -23.578125 2.726562 -23.75 2.0625 -23.96875 C 1.394531 -24.1875 1.0625 -24.460938 1.0625 -24.796875 C 1.0625 -25.066406 1.171875 -25.289062 1.390625 -25.46875 C 1.617188 -25.65625 1.941406 -25.773438 2.359375 -25.828125 C 2.359375 -25.828125 2.410156 -25.828125 2.515625 -25.828125 C 4.972656 -25.972656 7.894531 -26.046875 11.28125 -26.046875 C 13.90625 -26.046875 15.976562 -25.484375 17.5 -24.359375 C 19.019531 -23.234375 19.78125 -21.707031 19.78125 -19.78125 Z M 19.78125 -19.78125 "/></g></g></g><g fill="#7a1f2b" fill-opacity="1"><g transform="translate(288.987023, 34.59372)"><g><path d="M 11.953125 -1.890625 C 15.390625 -1.890625 17.957031 -2.78125 19.65625 -4.5625 C 21.351562 -6.351562 22.203125 -9.054688 22.203125 -12.671875 C 22.203125 -16.484375 21.320312 -19.335938 19.5625 -21.234375 C 17.8125 -23.128906 15.171875 -24.078125 11.640625 -24.078125 C 10.398438 -24.078125 9.410156 -24.03125 8.671875 -23.9375 C 7.941406 -23.84375 7.484375 -23.703125 7.296875 -23.515625 C 7.078125 -23.285156 6.921875 -22.367188 6.828125 -20.765625 C 6.734375 -19.171875 6.6875 -16.628906 6.6875 -13.140625 C 6.6875 -9.640625 6.71875 -7.164062 6.78125 -5.71875 C 6.851562 -4.269531 6.976562 -3.347656 7.15625 -2.953125 C 7.289062 -2.597656 7.757812 -2.332031 8.5625 -2.15625 C 9.363281 -1.976562 10.492188 -1.890625 11.953125 -1.890625 Z M 6.015625 -0.03125 C 5.867188 -0.03125 5.570312 -0.015625 5.125 0.015625 C 4.6875 0.046875 4.316406 0.0625 4.015625 0.0625 C 2.984375 0.0625 2.234375 -0.0234375 1.765625 -0.203125 C 1.296875 -0.390625 1.0625 -0.6875 1.0625 -1.09375 C 1.0625 -1.425781 1.394531 -1.703125 2.0625 -1.921875 C 2.726562 -2.148438 3.109375 -2.328125 3.203125 -2.453125 C 3.378906 -2.679688 3.503906 -3.523438 3.578125 -4.984375 C 3.660156 -6.441406 3.703125 -9.113281 3.703125 -13 C 3.703125 -16.84375 3.660156 -19.488281 3.578125 -20.9375 C 3.503906 -22.382812 3.378906 -23.222656 3.203125 -23.453125 C 3.109375 -23.578125 2.726562 -23.75 2.0625 -23.96875 C 1.394531 -24.1875 1.0625 -24.460938 1.0625 -24.796875 C 1.0625 -25.066406 1.171875 -25.289062 1.390625 -25.46875 C 1.617188 -25.65625 1.941406 -25.773438 2.359375 -25.828125 C 2.359375 -25.828125 2.429688 -25.832031 2.578125 -25.84375 C 5.191406 -26 8.222656 -26.078125 11.671875 -26.078125 C 16.191406 -26.078125 19.675781 -24.910156 22.125 -22.578125 C 24.570312 -20.253906 25.796875 -16.953125 25.796875 -12.671875 C 25.796875 -8.492188 24.5625 -5.328125 22.09375 -3.171875 C 19.625 -1.015625 16.003906 0.0625 11.234375 0.0625 C 10.785156 0.0625 9.976562 0.046875 8.8125 0.015625 C 7.65625 -0.015625 6.722656 -0.03125 6.015625 -0.03125 Z M 6.015625 -0.03125 "/></g></g></g></g></g></svg>